solid zone0
 facet normal -1 0 0
  outer loop
   vertex -7.5e-05 0.00015 0
   vertex -7.5e-05 -0.00015 0
   vertex -7.5e-05 0.00015 0.01
  endloop
 endfacet
 facet normal -1 -0 0
  outer loop
   vertex -7.5e-05 0.00015 0.01
   vertex -7.5e-05 -0.00015 0
   vertex -7.5e-05 -0.00015 0.01
  endloop
 endfacet
 facet normal 0 -1 0
  outer loop
   vertex -0.00015 0.00015 0
   vertex -7.5e-05 0.00015 0
   vertex -0.00015 0.00015 0.01
  endloop
 endfacet
 facet normal 0 -1 0
  outer loop
   vertex -0.00015 0.00015 0.01
   vertex -7.5e-05 0.00015 0
   vertex -7.5e-05 0.00015 0.01
  endloop
 endfacet
 facet normal -1 0 0
  outer loop
   vertex -0.00015 0.0002 0
   vertex -0.00015 0.00015 0
   vertex -0.00015 0.0002 0.01
  endloop
 endfacet
 facet normal -1 -0 0
  outer loop
   vertex -0.00015 0.0002 0.01
   vertex -0.00015 0.00015 0
   vertex -0.00015 0.00015 0.01
  endloop
 endfacet
 facet normal 0 1 -0
  outer loop
   vertex 0.00015 0.0002 0
   vertex -0.00015 0.0002 0
   vertex 0.00015 0.0002 0.01
  endloop
 endfacet
 facet normal 0 1 0
  outer loop
   vertex 0.00015 0.0002 0.01
   vertex -0.00015 0.0002 0
   vertex -0.00015 0.0002 0.01
  endloop
 endfacet
 facet normal 1 0 0
  outer loop
   vertex 0.00015 0.00015 0
   vertex 0.00015 0.0002 0
   vertex 0.00015 0.00015 0.01
  endloop
 endfacet
 facet normal 1 -0 0
  outer loop
   vertex 0.00015 0.00015 0.01
   vertex 0.00015 0.0002 0
   vertex 0.00015 0.0002 0.01
  endloop
 endfacet
 facet normal 0 -1 0
  outer loop
   vertex 7.5e-05 0.00015 0
   vertex 0.00015 0.00015 0
   vertex 7.5e-05 0.00015 0.01
  endloop
 endfacet
 facet normal 0 -1 0
  outer loop
   vertex 7.5e-05 0.00015 0.01
   vertex 0.00015 0.00015 0
   vertex 0.00015 0.00015 0.01
  endloop
 endfacet
 facet normal 1 0 0
  outer loop
   vertex 7.5e-05 -0.00015 0
   vertex 7.5e-05 0.00015 0
   vertex 7.5e-05 -0.00015 0.01
  endloop
 endfacet
 facet normal 1 -0 0
  outer loop
   vertex 7.5e-05 -0.00015 0.01
   vertex 7.5e-05 0.00015 0
   vertex 7.5e-05 0.00015 0.01
  endloop
 endfacet
 facet normal 0 1 -0
  outer loop
   vertex 0.00015 -0.00015 0
   vertex 7.5e-05 -0.00015 0
   vertex 0.00015 -0.00015 0.01
  endloop
 endfacet
 facet normal 0 1 0
  outer loop
   vertex 0.00015 -0.00015 0.01
   vertex 7.5e-05 -0.00015 0
   vertex 7.5e-05 -0.00015 0.01
  endloop
 endfacet
 facet normal 1 0 0
  outer loop
   vertex 0.00015 -0.0002 0
   vertex 0.00015 -0.00015 0
   vertex 0.00015 -0.0002 0.01
  endloop
 endfacet
 facet normal 1 -0 0
  outer loop
   vertex 0.00015 -0.0002 0.01
   vertex 0.00015 -0.00015 0
   vertex 0.00015 -0.00015 0.01
  endloop
 endfacet
 facet normal 0 -1 0
  outer loop
   vertex -0.00015 -0.0002 0
   vertex 0.00015 -0.0002 0
   vertex -0.00015 -0.0002 0.01
  endloop
 endfacet
 facet normal 0 -1 0
  outer loop
   vertex -0.00015 -0.0002 0.01
   vertex 0.00015 -0.0002 0
   vertex 0.00015 -0.0002 0.01
  endloop
 endfacet
 facet normal -1 0 0
  outer loop
   vertex -0.00015 -0.00015 0
   vertex -0.00015 -0.0002 0
   vertex -0.00015 -0.00015 0.01
  endloop
 endfacet
 facet normal -1 -0 0
  outer loop
   vertex -0.00015 -0.00015 0.01
   vertex -0.00015 -0.0002 0
   vertex -0.00015 -0.0002 0.01
  endloop
 endfacet
 facet normal 0 1 -0
  outer loop
   vertex -7.5e-05 -0.00015 0
   vertex -0.00015 -0.00015 0
   vertex -7.5e-05 -0.00015 0.01
  endloop
 endfacet
 facet normal 0 1 0
  outer loop
   vertex -7.5e-05 -0.00015 0.01
   vertex -0.00015 -0.00015 0
   vertex -0.00015 -0.00015 0.01
  endloop
 endfacet
 facet normal -0 0 1
  outer loop
   vertex -0.00015 -0.00015 0.01
   vertex -0.00015 -0.0002 0.01
   vertex -7.5e-05 -0.00015 0.01
  endloop
 endfacet
 facet normal 0 0 1
  outer loop
   vertex -7.5e-05 -0.00015 0.01
   vertex -0.00015 -0.0002 0.01
   vertex 0.00015 -0.0002 0.01
  endloop
 endfacet
 facet normal -0 0 1
  outer loop
   vertex -7.5e-05 -0.00015 0.01
   vertex 0.00015 -0.0002 0.01
   vertex 7.5e-05 -0.00015 0.01
  endloop
 endfacet
 facet normal -0 0 1
  outer loop
   vertex 7.5e-05 -0.00015 0.01
   vertex 0.00015 -0.0002 0.01
   vertex 0.00015 -0.00015 0.01
  endloop
 endfacet
 facet normal 0 0 1
  outer loop
   vertex -7.5e-05 -0.00015 0.01
   vertex 7.5e-05 -0.00015 0.01
   vertex -7.5e-05 0.00015 0.01
  endloop
 endfacet
 facet normal -0 0 1
  outer loop
   vertex -7.5e-05 0.00015 0.01
   vertex 7.5e-05 -0.00015 0.01
   vertex 7.5e-05 0.00015 0.01
  endloop
 endfacet
 facet normal 0 -0 1
  outer loop
   vertex -7.5e-05 0.00015 0.01
   vertex 7.5e-05 0.00015 0.01
   vertex -0.00015 0.0002 0.01
  endloop
 endfacet
 facet normal -0 0 1
  outer loop
   vertex -0.00015 0.0002 0.01
   vertex 7.5e-05 0.00015 0.01
   vertex 0.00015 0.0002 0.01
  endloop
 endfacet
 facet normal 0 0 1
  outer loop
   vertex 0.00015 0.0002 0.01
   vertex 7.5e-05 0.00015 0.01
   vertex 0.00015 0.00015 0.01
  endloop
 endfacet
 facet normal 0 0 1
  outer loop
   vertex -0.00015 0.0002 0.01
   vertex -0.00015 0.00015 0.01
   vertex -7.5e-05 0.00015 0.01
  endloop
 endfacet
 facet normal 0 0 -1
  outer loop
   vertex -0.00015 -0.00015 0
   vertex -7.5e-05 -0.00015 0
   vertex -0.00015 -0.0002 0
  endloop
 endfacet
 facet normal 0 0 -1
  outer loop
   vertex -0.00015 -0.0002 0
   vertex -7.5e-05 -0.00015 0
   vertex 7.5e-05 -0.00015 0
  endloop
 endfacet
 facet normal 0 0 -1
  outer loop
   vertex -0.00015 -0.0002 0
   vertex 7.5e-05 -0.00015 0
   vertex 0.00015 -0.0002 0
  endloop
 endfacet
 facet normal 0 0 -1
  outer loop
   vertex 0.00015 -0.0002 0
   vertex 7.5e-05 -0.00015 0
   vertex 0.00015 -0.00015 0
  endloop
 endfacet
 facet normal 0 0 -1
  outer loop
   vertex 7.5e-05 -0.00015 0
   vertex -7.5e-05 -0.00015 0
   vertex 7.5e-05 0.00015 0
  endloop
 endfacet
 facet normal -0 0 -1
  outer loop
   vertex 7.5e-05 0.00015 0
   vertex -7.5e-05 -0.00015 0
   vertex -7.5e-05 0.00015 0
  endloop
 endfacet
 facet normal 0 0 -1
  outer loop
   vertex 7.5e-05 0.00015 0
   vertex -7.5e-05 0.00015 0
   vertex 0.00015 0.0002 0
  endloop
 endfacet
 facet normal -0 0 -1
  outer loop
   vertex 0.00015 0.0002 0
   vertex -7.5e-05 0.00015 0
   vertex -0.00015 0.0002 0
  endloop
 endfacet
 facet normal 0 0 -1
  outer loop
   vertex -0.00015 0.0002 0
   vertex -7.5e-05 0.00015 0
   vertex -0.00015 0.00015 0
  endloop
 endfacet
 facet normal 0 -0 -1
  outer loop
   vertex 0.00015 0.0002 0
   vertex 0.00015 0.00015 0
   vertex 7.5e-05 0.00015 0
  endloop
 endfacet
endsolid zone0
