v -7.500000356e-05 0.0001500000071 0
v -7.500000356e-05 -0.99985 0
l 1 2
v -7.500000356e-05 -0.0001500000071 0.004999999888
v -7.500000356e-05 0.99985 0.004999999888
l 3 4
v -0.0001500000071 0.0001500000071 0.004999999888
v -0.0001500000071 0.0001500000071 -0.9950000001
l 5 6
v -0.0001500000071 0.0001500000071 0
v 0.99985 0.0001500000071 0
l 7 8
v -7.500000356e-05 0.0001500000071 0.004999999888
v -1.000075 0.0001500000071 0.004999999888
l 9 10
v -0.0001500000071 0.0001999999949 0.004999999888
v -0.0001500000071 0.0001999999949 -0.9950000001
l 11 12
v -0.0001500000071 0.0001999999949 0
v -0.0001500000071 -0.9998 0
l 13 14
v -0.0001500000071 0.0001500000071 0.004999999888
v -0.0001500000071 1.00015 0.004999999888
l 15 16
v 0.0001500000071 0.0001999999949 0.004999999888
v 0.0001500000071 0.0001999999949 -0.9950000001
l 17 18
v 0.0001500000071 0.0001999999949 0
v -0.99985 0.0001999999949 0
l 19 20
v -0.0001500000071 0.0001999999949 0.004999999888
v 0.99985 0.0001999999949 0.004999999888
l 21 22
v 0.0001500000071 0.0001500000071 0.004999999888
v 0.0001500000071 0.0001500000071 -0.9950000001
l 23 24
v 0.0001500000071 0.0001500000071 0
v 0.0001500000071 1.00015 0
l 25 26
v 0.0001500000071 0.0001999999949 0.004999999888
v 0.0001500000071 -0.9998 0.004999999888
l 27 28
v 7.500000356e-05 0.0001500000071 0
v 1.000075 0.0001500000071 0
l 29 30
v 0.0001500000071 0.0001500000071 0.004999999888
v -0.99985 0.0001500000071 0.004999999888
l 31 32
v 7.500000356e-05 -0.0001500000071 0
v 7.500000356e-05 0.99985 0
l 33 34
v 7.500000356e-05 0.0001500000071 0.004999999888
v 7.500000356e-05 -0.99985 0.004999999888
l 35 36
v 0.0001500000071 -0.0001500000071 0.004999999888
v 0.0001500000071 -0.0001500000071 -0.9950000001
l 37 38
v 0.0001500000071 -0.0001500000071 0
v -0.99985 -0.0001500000071 0
l 39 40
v 7.500000356e-05 -0.0001500000071 0.004999999888
v 1.000075 -0.0001500000071 0.004999999888
l 41 42
v 0.0001500000071 -0.0001999999949 0.004999999888
v 0.0001500000071 -0.0001999999949 -0.9950000001
l 43 44
v 0.0001500000071 -0.0001999999949 0
v 0.0001500000071 0.9998 0
l 45 46
v 0.0001500000071 -0.0001500000071 0.004999999888
v 0.0001500000071 -1.00015 0.004999999888
l 47 48
v -0.0001500000071 -0.0001999999949 0.004999999888
v -0.0001500000071 -0.0001999999949 -0.9950000001
l 49 50
v -0.0001500000071 -0.0001999999949 0
v 0.99985 -0.0001999999949 0
l 51 52
v 0.0001500000071 -0.0001999999949 0.004999999888
v -0.99985 -0.0001999999949 0.004999999888
l 53 54
v -0.0001500000071 -0.0001500000071 0.004999999888
v -0.0001500000071 -0.0001500000071 -0.9950000001
l 55 56
v -0.0001500000071 -0.0001500000071 0
v -0.0001500000071 -1.00015 0
l 57 58
v -0.0001500000071 -0.0001999999949 0.004999999888
v -0.0001500000071 0.9998 0.004999999888
l 59 60
v -7.500000356e-05 -0.0001500000071 0
v -1.000075 -0.0001500000071 0
l 61 62
v -0.0001500000071 -0.0001500000071 0.004999999888
v 0.99985 -0.0001500000071 0.004999999888
l 63 64
v -7.500000356e-05 0.0001500000071 0.004999999888
v -7.500000356e-05 0.0001500000071 -0.9950000001
l 65 66
v -7.500000356e-05 -0.0001500000071 0
v -7.500000356e-05 -0.0001500000071 1
l 67 68
v 7.500000356e-05 0.0001500000071 0.004999999888
v 7.500000356e-05 0.0001500000071 -0.9950000001
l 69 70
v 7.500000356e-05 -0.0001500000071 0.004999999888
v 7.500000356e-05 -0.0001500000071 -0.9950000001
l 71 72
