v -7.500000356e-05 0.0001500000071 0
v -7.500000356e-05 -0.0001500000071 0
l 1 2
v -0.0001500000071 0.0001500000071 0
v -7.500000356e-05 0.0001500000071 0
l 3 4
v -7.500000356e-05 0.0001500000071 0.004999999888
v -7.500000356e-05 0.0001500000071 0
l 5 6
v -7.500000356e-05 0.0001500000071 0
v -7.500000356e-05 -0.0001500000071 0
l 7 8
v -7.500000356e-05 -0.0001500000071 0
v -0.0001500000071 -0.0001500000071 0
l 9 10
v -7.500000356e-05 -0.0001500000071 0
v -7.500000356e-05 -0.0001500000071 0.004999999888
l 11 12
v -7.500000356e-05 -0.0001500000071 0.004999999888
v -7.500000356e-05 0.0001500000071 0.004999999888
l 13 14
v -7.500000356e-05 0.0001500000071 0.004999999888
v -0.0001500000071 0.0001500000071 0.004999999888
l 15 16
v -7.500000356e-05 0.0001500000071 0.004999999888
v -7.500000356e-05 0.0001500000071 0
l 17 18
v -7.500000356e-05 -0.0001500000071 0.004999999888
v -7.500000356e-05 0.0001500000071 0.004999999888
l 19 20
v -0.0001500000071 -0.0001500000071 0.004999999888
v -7.500000356e-05 -0.0001500000071 0.004999999888
l 21 22
v -7.500000356e-05 -0.0001500000071 0
v -7.500000356e-05 -0.0001500000071 0.004999999888
l 23 24
v 7.500000356e-05 0.0001500000071 0
v 0.0001500000071 0.0001500000071 0
l 25 26
v 7.500000356e-05 -0.0001500000071 0
v 7.500000356e-05 0.0001500000071 0
l 27 28
v 7.500000356e-05 0.0001500000071 0.004999999888
v 7.500000356e-05 0.0001500000071 0
l 29 30
v 0.0001500000071 0.0001500000071 0.004999999888
v 7.500000356e-05 0.0001500000071 0.004999999888
l 31 32
v 7.500000356e-05 0.0001500000071 0.004999999888
v 7.500000356e-05 -0.0001500000071 0.004999999888
l 33 34
v 7.500000356e-05 0.0001500000071 0.004999999888
v 7.500000356e-05 0.0001500000071 0
l 35 36
v 7.500000356e-05 -0.0001500000071 0
v 7.500000356e-05 0.0001500000071 0
l 37 38
v 0.0001500000071 -0.0001500000071 0
v 7.500000356e-05 -0.0001500000071 0
l 39 40
v 7.500000356e-05 -0.0001500000071 0.004999999888
v 7.500000356e-05 -0.0001500000071 0
l 41 42
v 7.500000356e-05 0.0001500000071 0.004999999888
v 7.500000356e-05 -0.0001500000071 0.004999999888
l 43 44
v 7.500000356e-05 -0.0001500000071 0.004999999888
v 0.0001500000071 -0.0001500000071 0.004999999888
l 45 46
v 7.500000356e-05 -0.0001500000071 0.004999999888
v 7.500000356e-05 -0.0001500000071 0
l 47 48
