# Wavefront OBJ file written 2026-09-30T18:01:59
o Microcanal_m_edgeMesh

# points : 24
# lines  : 36

# <points count="24">
v -0.0001500000071 0.0001500000071 0
v -0.0001500000071 0.0001500000071 0.004999999888
v -0.0001500000071 0.0001999999949 0
v -0.0001500000071 0.0001999999949 0.004999999888
v 0.0001500000071 0.0001999999949 0
v 0.0001500000071 0.0001999999949 0.004999999888
v 0.0001500000071 0.0001500000071 0
v 0.0001500000071 0.0001500000071 0.004999999888
v 0.0001500000071 -0.0001500000071 0
v 0.0001500000071 -0.0001500000071 0.004999999888
v 0.0001500000071 -0.0001999999949 0
v 0.0001500000071 -0.0001999999949 0.004999999888
v -0.0001500000071 -0.0001999999949 0
v -0.0001500000071 -0.0001999999949 0.004999999888
v -0.0001500000071 -0.0001500000071 0
v -0.0001500000071 -0.0001500000071 0.004999999888
v -7.500000356e-05 0.0001500000071 0
v -7.500000356e-05 -0.0001500000071 0
v -7.500000356e-05 0.0001500000071 0.004999999888
v -7.500000356e-05 -0.0001500000071 0.004999999888
v 7.500000356e-05 0.0001500000071 0
v 7.500000356e-05 0.0001500000071 0.004999999888
v 7.500000356e-05 -0.0001500000071 0
v 7.500000356e-05 -0.0001500000071 0.004999999888
# </points>

# <edges count="36">
l 17 18
l 20 19
l 2 1
l 1 17
l 19 2
l 4 3
l 3 1
l 2 4
l 6 5
l 5 3
l 4 6
l 8 7
l 7 5
l 6 8
l 21 7
l 8 22
l 23 21
l 22 24
l 10 9
l 9 23
l 24 10
l 12 11
l 11 9
l 10 12
l 14 13
l 13 11
l 12 14
l 16 15
l 15 13
l 14 16
l 18 15
l 16 20
l 19 17
l 18 20
l 22 21
l 24 23
# </edges>
