v -0.0001500000071 0.0001500000071 0
v -0.0001500000071 0.0001500000071 0.004999999888
v -0.0001500000071 0.0001999999949 0
v -0.0001500000071 0.0001999999949 0.004999999888
v 0.0001500000071 0.0001999999949 0
v 0.0001500000071 0.0001999999949 0.004999999888
v 0.0001500000071 0.0001500000071 0
v 0.0001500000071 0.0001500000071 0.004999999888
v 0.0001500000071 -0.0001500000071 0
v 0.0001500000071 -0.0001500000071 0.004999999888
v 0.0001500000071 -0.0001999999949 0
v 0.0001500000071 -0.0001999999949 0.004999999888
v -0.0001500000071 -0.0001999999949 0
v -0.0001500000071 -0.0001999999949 0.004999999888
v -0.0001500000071 -0.0001500000071 0
v -0.0001500000071 -0.0001500000071 0.004999999888
